<svg xmlns="http://www.w3.org/2000/svg" height="64" width="64" viewBox="0 0 64 64"><title>lock</title><g stroke-linecap="round" stroke-width="3" fill="none" stroke="#0a0a0a" stroke-linejoin="round" class="nc-icon-wrapper" transform="translate(0.5 0.5)"><path d="M44,23V14A12,12,0,0,0,32,2h0A12,12,0,0,0,20,14v9" stroke="#0a0a0a"></path><path d="M51,62H13a5,5,0,0,1-5-5V33a5,5,0,0,1,5-5H51a5,5,0,0,1,5,5V57A5,5,0,0,1,51,62Z"></path><line x1="32" y1="48" x2="32" y2="54" stroke="#0a0a0a"></line><circle cx="32" cy="42" r="6" stroke="#0a0a0a"></circle></g></svg>